<svg width="40" height="40" viewBox="0 0 40 40" fill="none" xmlns="http://www.w3.org/2000/svg">
<circle cx="20" cy="20" r="20" fill="#FF4433"/>
<path d="M29.7199 19.0546C29.3257 18.5404 28.8458 18.0947 28.4001 17.6491C27.2518 16.6207 25.9492 15.8837 24.8522 14.8039C22.2984 12.3015 21.7328 8.17085 23.3611 5C21.7328 5.39421 20.3102 6.28548 19.0933 7.26244C14.6541 10.8275 12.9058 17.1178 14.9969 22.5168C15.0654 22.6882 15.134 22.8596 15.134 23.0824C15.134 23.4595 14.8769 23.8023 14.5341 23.9394C14.1399 24.1108 13.7285 24.0079 13.4029 23.7337C13.3 23.648 13.2315 23.5623 13.1629 23.4423C11.2261 20.9914 10.9176 17.4777 12.2202 14.6668C9.35791 16.9978 7.79819 20.9399 8.02101 24.6593C8.12385 25.5162 8.22668 26.3732 8.51806 27.2302C8.75802 28.2586 9.22079 29.287 9.73498 30.1954C11.5861 33.1606 14.7912 35.2859 18.2363 35.7144C21.9042 36.1771 25.8292 35.5087 28.6401 32.972C31.7767 30.1268 32.8736 25.5677 31.2625 21.6598L31.0396 21.2142C30.6797 20.4257 29.7199 19.0546 29.7199 19.0546ZM24.3037 29.8526C23.8238 30.2639 23.0354 30.7096 22.4184 30.881C20.4987 31.5666 18.5791 30.6067 17.4479 29.4755C19.4875 28.9956 20.7044 27.4873 21.0643 25.9619C21.3557 24.5907 20.8072 23.4595 20.5844 22.1397C20.3787 20.8714 20.413 19.7916 20.8758 18.6089C21.2015 19.2602 21.5442 19.9116 21.9556 20.4257C23.2754 22.1397 25.3493 22.8939 25.7949 25.2249C25.8635 25.4648 25.8977 25.7048 25.8977 25.9619C25.9492 27.3673 25.3321 28.9099 24.3037 29.8526Z" fill="white"/>
</svg>
