<svg width="162" height="63" viewBox="0 0 162 63" fill="none" xmlns="http://www.w3.org/2000/svg">
<path d="M14.436 34.572C14.436 36.108 13.872 37.308 12.744 38.172C11.616 39.036 9.984 39.468 7.848 39.468C6.024 39.468 4.536 39.192 3.384 38.64C2.232 38.064 1.656 37.44 1.656 36.768C1.656 36.48 1.728 36.204 1.872 35.94C2.04 35.652 2.28 35.424 2.592 35.256C3.24 35.712 3.996 36.132 4.86 36.516C5.724 36.9 6.708 37.092 7.812 37.092C10.308 37.092 11.556 36.252 11.556 34.572C11.556 33.876 11.34 33.312 10.908 32.88C10.5 32.424 9.888 32.1 9.072 31.908L6.084 31.116C4.62 30.756 3.552 30.204 2.88 29.46C2.208 28.692 1.872 27.744 1.872 26.616C1.872 25.344 2.388 24.24 3.42 23.304C4.452 22.368 6.024 21.9 8.136 21.9C9.264 21.9 10.248 22.02 11.088 22.26C11.928 22.476 12.576 22.776 13.032 23.16C13.512 23.52 13.752 23.916 13.752 24.348C13.752 24.66 13.668 24.936 13.5 25.176C13.356 25.416 13.152 25.596 12.888 25.716C12.6 25.524 12.228 25.32 11.772 25.104C11.34 24.864 10.824 24.672 10.224 24.528C9.624 24.36 8.964 24.276 8.244 24.276C7.188 24.276 6.336 24.48 5.688 24.888C5.04 25.296 4.716 25.872 4.716 26.616C4.716 27.144 4.896 27.612 5.256 28.02C5.64 28.404 6.24 28.692 7.056 28.884L9.54 29.496C11.172 29.88 12.396 30.492 13.212 31.332C14.028 32.148 14.436 33.228 14.436 34.572ZM34.4213 30.684C34.4213 32.46 34.0853 34.008 33.4133 35.328C32.7413 36.648 31.7933 37.668 30.5693 38.388C29.3453 39.108 27.9053 39.468 26.2493 39.468C24.5933 39.468 23.1413 39.108 21.8933 38.388C20.6693 37.668 19.7213 36.648 19.0493 35.328C18.3773 34.008 18.0413 32.46 18.0413 30.684C18.0413 28.884 18.3773 27.336 19.0493 26.04C19.7453 24.72 20.7053 23.7 21.9293 22.98C23.1773 22.26 24.6173 21.9 26.2493 21.9C27.8813 21.9 29.3093 22.26 30.5333 22.98C31.7573 23.7 32.7053 24.72 33.3773 26.04C34.0733 27.336 34.4213 28.884 34.4213 30.684ZM26.2493 24.276C24.6413 24.276 23.3573 24.852 22.3973 26.004C21.4613 27.132 20.9933 28.692 20.9933 30.684C20.9933 32.7 21.4493 34.272 22.3613 35.4C23.2973 36.528 24.5933 37.092 26.2493 37.092C27.8813 37.092 29.1533 36.528 30.0653 35.4C31.0013 34.248 31.4693 32.676 31.4693 30.684C31.4693 28.692 31.0013 27.132 30.0653 26.004C29.1533 24.852 27.8813 24.276 26.2493 24.276ZM46.5798 24.312C44.9478 24.312 43.5918 24.864 42.5118 25.968C41.4318 27.072 40.8918 28.656 40.8918 30.72C40.8918 32.76 41.4078 34.332 42.4398 35.436C43.4958 36.54 44.8758 37.092 46.5798 37.092C47.5878 37.092 48.4278 36.96 49.0998 36.696C49.7718 36.408 50.3718 36.084 50.8998 35.724C51.1638 35.868 51.3798 36.048 51.5478 36.264C51.7158 36.48 51.7998 36.744 51.7998 37.056C51.7998 37.728 51.2958 38.304 50.2878 38.784C49.3038 39.24 48.0678 39.468 46.5798 39.468C44.9238 39.468 43.4358 39.156 42.1158 38.532C40.8198 37.884 39.7998 36.912 39.0558 35.616C38.3118 34.32 37.9398 32.688 37.9398 30.72C37.9398 28.776 38.3238 27.156 39.0918 25.86C39.8598 24.54 40.8918 23.556 42.1878 22.908C43.5078 22.236 44.9478 21.9 46.5078 21.9C47.9958 21.9 49.2198 22.152 50.1798 22.656C51.1638 23.16 51.6558 23.736 51.6558 24.384C51.6558 24.672 51.5718 24.924 51.4038 25.14C51.2358 25.356 51.0198 25.524 50.7558 25.644C50.2278 25.284 49.6398 24.972 48.9918 24.708C48.3678 24.444 47.5638 24.312 46.5798 24.312ZM55.8152 17.112C55.8152 16.608 55.9952 16.188 56.3552 15.852C56.7152 15.492 57.1592 15.312 57.6872 15.312C58.2392 15.312 58.6832 15.492 59.0192 15.852C59.3552 16.188 59.5232 16.608 59.5232 17.112C59.5232 17.616 59.3552 18.048 59.0192 18.408C58.6832 18.744 58.2392 18.912 57.6872 18.912C57.1592 18.912 56.7152 18.744 56.3552 18.408C55.9952 18.048 55.8152 17.616 55.8152 17.112ZM56.2472 29.496H59.1272V38.928C59.0072 38.976 58.8272 39.024 58.5872 39.072C58.3472 39.144 58.0832 39.18 57.7952 39.18C57.2912 39.18 56.9072 39.084 56.6432 38.892C56.3792 38.676 56.2472 38.34 56.2472 37.884V29.496ZM59.1272 30.9H56.2472V22.44C56.3672 22.392 56.5472 22.344 56.7872 22.296C57.0512 22.224 57.3272 22.188 57.6152 22.188C58.1192 22.188 58.4912 22.296 58.7312 22.512C58.9952 22.704 59.1272 23.04 59.1272 23.52V30.9ZM70.6908 37.128C71.6988 37.128 72.5268 37.032 73.1748 36.84C73.8468 36.624 74.3268 36.42 74.6148 36.228V31.008L70.1508 31.476C68.9028 31.572 67.9788 31.848 67.3788 32.304C66.7788 32.76 66.4788 33.42 66.4788 34.284C66.4788 35.172 66.8268 35.868 67.5228 36.372C68.2428 36.876 69.2988 37.128 70.6908 37.128ZM70.6548 21.9C72.7428 21.9 74.3988 22.368 75.6228 23.304C76.8468 24.24 77.4588 25.716 77.4588 27.732V36.264C77.4588 36.792 77.3508 37.2 77.1348 37.488C76.9428 37.752 76.6428 38.004 76.2348 38.244C75.6588 38.556 74.8908 38.844 73.9308 39.108C72.9708 39.372 71.8908 39.504 70.6908 39.504C68.4348 39.504 66.6828 39.06 65.4348 38.172C64.2108 37.284 63.5988 36 63.5988 34.32C63.5988 32.76 64.1148 31.572 65.1468 30.756C66.2028 29.916 67.6548 29.412 69.5028 29.244L74.6148 28.74V27.732C74.6148 26.532 74.2548 25.656 73.5348 25.104C72.8148 24.552 71.8428 24.276 70.6188 24.276C69.6348 24.276 68.6868 24.42 67.7748 24.708C66.8868 24.996 66.0948 25.32 65.3988 25.68C65.2068 25.512 65.0268 25.32 64.8588 25.104C64.7148 24.864 64.6428 24.624 64.6428 24.384C64.6428 23.76 64.9908 23.28 65.6868 22.944C66.3348 22.608 67.0788 22.356 67.9188 22.188C68.7828 21.996 69.6948 21.9 70.6548 21.9ZM83.0036 29.496L85.8836 29.928V38.928C85.7636 38.976 85.5836 39.024 85.3436 39.072C85.1036 39.144 84.8396 39.18 84.5516 39.18C84.0476 39.18 83.6636 39.084 83.3996 38.892C83.1356 38.676 83.0036 38.34 83.0036 37.884V29.496ZM85.8836 31.296L83.0036 30.9V15.672C83.1236 15.624 83.3036 15.576 83.5436 15.528C83.8076 15.456 84.0716 15.42 84.3356 15.42C84.8636 15.42 85.2476 15.528 85.4876 15.744C85.7516 15.936 85.8836 16.26 85.8836 16.716V31.296ZM98.127 37.02C99.735 37.02 100.947 36.66 101.763 35.94C102.603 35.196 103.023 34.248 103.023 33.096C103.023 32.112 102.699 31.296 102.051 30.648C101.427 30 100.431 29.484 99.063 29.1L95.931 28.164C94.923 27.852 94.047 27.456 93.303 26.976C92.559 26.472 91.983 25.86 91.575 25.14C91.191 24.396 90.999 23.532 90.999 22.548C90.999 20.7 91.671 19.26 93.015 18.228C94.359 17.172 96.147 16.644 98.379 16.644C99.675 16.644 100.827 16.788 101.835 17.076C102.867 17.34 103.671 17.688 104.247 18.12C104.847 18.552 105.147 19.008 105.147 19.488C105.147 19.8 105.063 20.088 104.895 20.352C104.727 20.592 104.511 20.784 104.247 20.928C103.647 20.448 102.831 20.028 101.799 19.668C100.791 19.308 99.687 19.128 98.487 19.128C97.095 19.128 95.991 19.44 95.175 20.064C94.359 20.664 93.951 21.492 93.951 22.548C93.951 23.388 94.239 24.072 94.815 24.6C95.415 25.128 96.375 25.584 97.695 25.968L99.891 26.616C101.787 27.144 103.275 27.912 104.355 28.92C105.459 29.928 106.011 31.32 106.011 33.096C106.011 34.992 105.315 36.528 103.923 37.704C102.555 38.88 100.623 39.468 98.127 39.468C96.663 39.468 95.379 39.312 94.275 39C93.195 38.664 92.343 38.256 91.719 37.776C91.119 37.272 90.819 36.78 90.819 36.3C90.819 35.892 90.939 35.556 91.179 35.292C91.443 35.004 91.743 34.8 92.079 34.68C92.631 35.208 93.411 35.736 94.419 36.264C95.427 36.768 96.663 37.02 98.127 37.02ZM113.17 35.292C112.762 34.524 112.27 33.492 111.694 32.196C111.118 30.876 110.518 29.412 109.894 27.804C109.294 26.172 108.718 24.516 108.166 22.836C108.334 22.596 108.55 22.404 108.814 22.26C109.102 22.116 109.402 22.044 109.714 22.044C110.122 22.044 110.458 22.152 110.722 22.368C110.986 22.584 111.202 22.944 111.37 23.448C112.09 25.464 112.846 27.468 113.638 29.46C114.43 31.452 115.306 33.516 116.266 35.652H116.41C116.914 34.644 117.442 33.384 117.994 31.872C118.546 30.36 119.074 28.764 119.578 27.084C120.082 25.404 120.502 23.82 120.838 22.332C121.006 22.26 121.186 22.2 121.378 22.152C121.594 22.08 121.822 22.044 122.062 22.044C122.47 22.044 122.806 22.152 123.07 22.368C123.334 22.56 123.466 22.86 123.466 23.268C123.466 23.652 123.358 24.3 123.142 25.212C122.926 26.1 122.626 27.144 122.242 28.344C121.882 29.52 121.45 30.78 120.946 32.124C120.466 33.444 119.938 34.752 119.362 36.048C118.81 37.32 118.246 38.472 117.67 39.504C116.566 41.544 115.558 43.104 114.646 44.184C113.734 45.288 112.894 45.84 112.126 45.84C111.574 45.84 111.142 45.696 110.83 45.408C110.542 45.12 110.362 44.784 110.29 44.4C110.818 43.944 111.406 43.332 112.054 42.564C112.726 41.82 113.362 41.004 113.962 40.116C114.586 39.252 115.09 38.424 115.474 37.632C115.066 37.512 114.682 37.296 114.322 36.984C113.986 36.672 113.602 36.108 113.17 35.292ZM141.553 28.02V31.692H138.673V28.164C138.673 26.82 138.289 25.836 137.521 25.212C136.777 24.588 135.769 24.276 134.497 24.276C133.537 24.276 132.685 24.396 131.941 24.636C131.197 24.876 130.561 25.152 130.033 25.464V31.692H127.153V25.608C127.153 25.104 127.249 24.696 127.441 24.384C127.657 24.048 128.017 23.724 128.521 23.412C129.145 23.052 129.973 22.716 131.005 22.404C132.037 22.068 133.201 21.9 134.497 21.9C136.681 21.9 138.397 22.404 139.645 23.412C140.917 24.396 141.553 25.932 141.553 28.02ZM127.153 29.712H130.033V38.928C129.913 38.976 129.733 39.024 129.493 39.072C129.253 39.144 128.989 39.18 128.701 39.18C128.197 39.18 127.813 39.084 127.549 38.892C127.285 38.676 127.153 38.34 127.153 37.884V29.712ZM138.673 29.712H141.553V38.928C141.433 38.976 141.241 39.024 140.977 39.072C140.737 39.144 140.485 39.18 140.221 39.18C139.693 39.18 139.297 39.084 139.033 38.892C138.793 38.676 138.673 38.34 138.673 37.884V29.712ZM154.65 24.312C153.018 24.312 151.662 24.864 150.582 25.968C149.502 27.072 148.962 28.656 148.962 30.72C148.962 32.76 149.478 34.332 150.51 35.436C151.566 36.54 152.946 37.092 154.65 37.092C155.658 37.092 156.498 36.96 157.17 36.696C157.842 36.408 158.442 36.084 158.97 35.724C159.234 35.868 159.45 36.048 159.618 36.264C159.786 36.48 159.87 36.744 159.87 37.056C159.87 37.728 159.366 38.304 158.358 38.784C157.374 39.24 156.138 39.468 154.65 39.468C152.994 39.468 151.506 39.156 150.186 38.532C148.89 37.884 147.87 36.912 147.126 35.616C146.382 34.32 146.01 32.688 146.01 30.72C146.01 28.776 146.394 27.156 147.162 25.86C147.93 24.54 148.962 23.556 150.258 22.908C151.578 22.236 153.018 21.9 154.578 21.9C156.066 21.9 157.29 22.152 158.25 22.656C159.234 23.16 159.726 23.736 159.726 24.384C159.726 24.672 159.642 24.924 159.474 25.14C159.306 25.356 159.09 25.524 158.826 25.644C158.298 25.284 157.71 24.972 157.062 24.708C156.438 24.444 155.634 24.312 154.65 24.312Z" fill="black"/>
<circle cx="58" cy="14" r="5" fill="#FF4433"/>
</svg>
