<svg width="37" height="37" viewBox="0 0 37 37" fill="none" xmlns="http://www.w3.org/2000/svg">
<path d="M10.7244 26.0451C12.2395 27.5602 14.1698 28.5919 16.2713 29.0099C18.3727 29.4279 20.5509 29.2134 22.5305 28.3935C24.51 27.5735 26.2019 26.185 27.3923 24.4034C28.5827 22.6219 29.2181 20.5274 29.2181 18.3848C29.2181 16.2421 28.5827 14.1476 27.3923 12.3661C26.2019 10.5846 24.51 9.19602 22.5305 8.37607C20.5509 7.55612 18.3727 7.34159 16.2713 7.75959C14.1698 8.1776 12.2395 9.20937 10.7244 10.7244C9.71844 11.7304 8.92047 12.9247 8.37604 14.239C7.83161 15.5534 7.5514 16.9621 7.5514 18.3848C7.5514 21.2579 8.69277 24.0134 10.7244 26.0451ZM16.9829 14.1333L21.4718 14.2405C21.5375 14.2413 21.6024 14.2543 21.6634 14.2788C21.7319 14.2823 21.7993 14.2979 21.8625 14.3248C21.9947 14.376 22.1148 14.4542 22.2151 14.5544C22.3153 14.6547 22.3935 14.7748 22.4447 14.907C22.5023 15.0375 22.5335 15.178 22.5366 15.3206L22.5366 19.9168C22.5366 20.2053 22.422 20.482 22.218 20.686C22.014 20.89 21.7374 21.0046 21.4489 21.0046C21.1604 21.0046 20.8837 20.89 20.6797 20.686C20.4757 20.482 20.3611 20.2053 20.3611 19.9168L20.3688 17.9328L16.0866 22.2149C15.8835 22.4181 15.6079 22.5322 15.3206 22.5322C15.0333 22.5322 14.7577 22.4181 14.5546 22.2149C14.3514 22.0118 14.2373 21.7362 14.2373 21.4489C14.2373 21.1616 14.3514 20.886 14.5546 20.6829L18.8903 16.3471L16.9293 16.3012C16.6418 16.294 16.3689 16.173 16.1707 15.9647C15.9724 15.7564 15.865 15.4779 15.8721 15.1904C15.8793 14.9029 16.0003 14.6301 16.2086 14.4318C16.4169 14.2336 16.6954 14.1262 16.9829 14.1333Z" fill="black"/>
</svg>
